<svg xmlns="http://www.w3.org/2000/svg" viewBox="0 0 64 64" width="512" height="512">
    <g id="avatar-man-boy-people-user">
        <path d="M29,23a3,3,0,0,0-6,0h2a1,1,0,0,1,2,0Z"/>
        <path d="M38,22a1,1,0,0,1,1,1h2a3,3,0,0,0-6,0h2A1,1,0,0,1,38,22Z"/>
        <path d="M49.29,43.46,37,40.23V37a13.022,13.022,0,0,0,7.84-10.08A4.967,4.967,0,0,0,48,19.03V18a16,16,0,0,0-32,0v1.03A4.939,4.939,0,0,0,15,22a4.982,4.982,0,0,0,4.16,4.92A13.037,13.037,0,0,0,27,37v3.23L14.7,43.46A9.03,9.03,0,0,0,8,52.17V61a1,1,0,0,0,1,1H55a1,1,0,0,0,1-1V52.17A9.028,9.028,0,0,0,49.29,43.46ZM47,22a3.022,3.022,0,0,1-.87,2.12,2.951,2.951,0,0,1-1.13.69V19.18A3.01,3.01,0,0,1,47,22ZM19,24.82a3.179,3.179,0,0,1-1.12-.69A3,3,0,0,1,19,19.18Zm-.97-7.41a13.973,13.973,0,0,1,23.86-9.3,13.808,13.808,0,0,1,4.08,9.3A4.959,4.959,0,0,0,44,17H41.48l-3.7-4.62a.994.994,0,0,0-.72-.38,1.031,1.031,0,0,0-.77.29L32,16.59l-4.29-4.3a1.031,1.031,0,0,0-.77-.29.994.994,0,0,0-.72.38L22.52,17H20A5,5,0,0,0,18.03,17.41ZM21,25V19h2a1,1,0,0,0,.78-.38l3.3-4.12,4.21,4.21a1.008,1.008,0,0,0,1.42,0l4.21-4.21,3.3,4.12A1,1,0,0,0,41,19h2v6a11,11,0,0,1-22,0ZM36.37,42.13l.63.17v5.83l-3.54-2.36ZM32,44.4l-3-3.75V37.64a12.68,12.68,0,0,0,6,0v3.01Zm-5-2.1.63-.17,2.91,3.64L27,48.13ZM54,60H10V52.17a7.019,7.019,0,0,1,5.21-6.77L25,42.82V50a1,1,0,0,0,1.55.83L31,47.87V50H30v2h1v2H30v2h1v2h2V56h1V54H33V52h1V50H33V47.87l4.45,2.96A1,1,0,0,0,39,50V42.82l9.78,2.58A7.017,7.017,0,0,1,54,52.17Z"/>
        <path d="M37,29H35c0,.249-1.064,1-3,1s-3-.751-3-1H27c0,1.71,2.149,3,5,3S37,30.71,37,29Z"/>
    </g>
</svg>